<?xml version='1.0' encoding='UTF-8'?>
<svg role="img" aria-labelledby="qr-title qr-desc" shape-rendering="crispEdges" width="41mm" height="41mm" version="1.1" viewBox="0 0 41 41" xmlns="http://www.w3.org/2000/svg"><title id="qr-title">AI short drama customer entry QR</title><desc id="qr-desc">https://mcp.edgeone.site/share/gcwKrD3X_9J2U_uR664d8</desc><path d="M4,4H5V5H4zM5,4H6V5H5zM6,4H7V5H6zM7,4H8V5H7zM8,4H9V5H8zM9,4H10V5H9zM10,4H11V5H10zM12,4H13V5H12zM13,4H14V5H13zM14,4H15V5H14zM16,4H17V5H16zM18,4H19V5H18zM19,4H20V5H19zM20,4H21V5H20zM21,4H22V5H21zM22,4H23V5H22zM25,4H26V5H25zM27,4H28V5H27zM30,4H31V5H30zM31,4H32V5H31zM32,4H33V5H32zM33,4H34V5H33zM34,4H35V5H34zM35,4H36V5H35zM36,4H37V5H36zM4,5H5V6H4zM10,5H11V6H10zM14,5H15V6H14zM16,5H17V6H16zM21,5H22V6H21zM23,5H24V6H23zM25,5H26V6H25zM26,5H27V6H26zM30,5H31V6H30zM36,5H37V6H36zM4,6H5V7H4zM6,6H7V7H6zM7,6H8V7H7zM8,6H9V7H8zM10,6H11V7H10zM13,6H14V7H13zM14,6H15V7H14zM16,6H17V7H16zM17,6H18V7H17zM20,6H21V7H20zM23,6H24V7H23zM25,6H26V7H25zM27,6H28V7H27zM28,6H29V7H28zM30,6H31V7H30zM32,6H33V7H32zM33,6H34V7H33zM34,6H35V7H34zM36,6H37V7H36zM4,7H5V8H4zM6,7H7V8H6zM7,7H8V8H7zM8,7H9V8H8zM10,7H11V8H10zM12,7H13V8H12zM13,7H14V8H13zM14,7H15V8H14zM16,7H17V8H16zM18,7H19V8H18zM19,7H20V8H19zM21,7H22V8H21zM22,7H23V8H22zM27,7H28V8H27zM28,7H29V8H28zM30,7H31V8H30zM32,7H33V8H32zM33,7H34V8H33zM34,7H35V8H34zM36,7H37V8H36zM4,8H5V9H4zM6,8H7V9H6zM7,8H8V9H7zM8,8H9V9H8zM10,8H11V9H10zM12,8H13V9H12zM14,8H15V9H14zM17,8H18V9H17zM18,8H19V9H18zM21,8H22V9H21zM22,8H23V9H22zM23,8H24V9H23zM24,8H25V9H24zM26,8H27V9H26zM30,8H31V9H30zM32,8H33V9H32zM33,8H34V9H33zM34,8H35V9H34zM36,8H37V9H36zM4,9H5V10H4zM10,9H11V10H10zM12,9H13V10H12zM14,9H15V10H14zM16,9H17V10H16zM17,9H18V10H17zM20,9H21V10H20zM22,9H23V10H22zM23,9H24V10H23zM24,9H25V10H24zM26,9H27V10H26zM30,9H31V10H30zM36,9H37V10H36zM4,10H5V11H4zM5,10H6V11H5zM6,10H7V11H6zM7,10H8V11H7zM8,10H9V11H8zM9,10H10V11H9zM10,10H11V11H10zM12,10H13V11H12zM14,10H15V11H14zM16,10H17V11H16zM18,10H19V11H18zM20,10H21V11H20zM22,10H23V11H22zM24,10H25V11H24zM26,10H27V11H26zM28,10H29V11H28zM30,10H31V11H30zM31,10H32V11H31zM32,10H33V11H32zM33,10H34V11H33zM34,10H35V11H34zM35,10H36V11H35zM36,10H37V11H36zM12,11H13V12H12zM13,11H14V12H13zM14,11H15V12H14zM15,11H16V12H15zM18,11H19V12H18zM19,11H20V12H19zM20,11H21V12H20zM21,11H22V12H21zM22,11H23V12H22zM25,11H26V12H25zM26,11H27V12H26zM27,11H28V12H27zM28,11H29V12H28zM4,12H5V13H4zM8,12H9V13H8zM10,12H11V13H10zM11,12H12V13H11zM12,12H13V13H12zM15,12H16V13H15zM16,12H17V13H16zM18,12H19V13H18zM20,12H21V13H20zM21,12H22V13H21zM25,12H26V13H25zM26,12H27V13H26zM28,12H29V13H28zM29,12H30V13H29zM30,12H31V13H30zM31,12H32V13H31zM32,12H33V13H32zM33,12H34V13H33zM36,12H37V13H36zM4,13H5V14H4zM6,13H7V14H6zM7,13H8V14H7zM8,13H9V14H8zM13,13H14V14H13zM14,13H15V14H14zM15,13H16V14H15zM17,13H18V14H17zM18,13H19V14H18zM19,13H20V14H19zM20,13H21V14H20zM27,13H28V14H27zM29,13H30V14H29zM33,13H34V14H33zM34,13H35V14H34zM4,14H5V15H4zM5,14H6V15H5zM7,14H8V15H7zM10,14H11V15H10zM11,14H12V15H11zM12,14H13V15H12zM15,14H16V15H15zM16,14H17V15H16zM19,14H20V15H19zM21,14H22V15H21zM25,14H26V15H25zM27,14H28V15H27zM30,14H31V15H30zM33,14H34V15H33zM35,14H36V15H35zM6,15H7V16H6zM8,15H9V16H8zM11,15H12V16H11zM12,15H13V16H12zM13,15H14V16H13zM15,15H16V16H15zM16,15H17V16H16zM18,15H19V16H18zM19,15H20V16H19zM20,15H21V16H20zM21,15H22V16H21zM22,15H23V16H22zM23,15H24V16H23zM24,15H25V16H24zM25,15H26V16H25zM28,15H29V16H28zM35,15H36V16H35zM36,15H37V16H36zM7,16H8V17H7zM9,16H10V17H9zM10,16H11V17H10zM15,16H16V17H15zM17,16H18V17H17zM18,16H19V17H18zM22,16H23V17H22zM26,16H27V17H26zM27,16H28V17H27zM30,16H31V17H30zM31,16H32V17H31zM33,16H34V17H33zM35,16H36V17H35zM36,16H37V17H36zM4,17H5V18H4zM12,17H13V18H12zM14,17H15V18H14zM17,17H18V18H17zM20,17H21V18H20zM24,17H25V18H24zM26,17H27V18H26zM30,17H31V18H30zM31,17H32V18H31zM33,17H34V18H33zM34,17H35V18H34zM5,18H6V19H5zM6,18H7V19H6zM7,18H8V19H7zM9,18H10V19H9zM10,18H11V19H10zM12,18H13V19H12zM13,18H14V19H13zM14,18H15V19H14zM15,18H16V19H15zM16,18H17V19H16zM18,18H19V19H18zM20,18H21V19H20zM21,18H22V19H21zM22,18H23V19H22zM27,18H28V19H27zM29,18H30V19H29zM30,18H31V19H30zM34,18H35V19H34zM35,18H36V19H35zM4,19H5V20H4zM6,19H7V20H6zM8,19H9V20H8zM9,19H10V20H9zM11,19H12V20H11zM12,19H13V20H12zM21,19H22V20H21zM24,19H25V20H24zM25,19H26V20H25zM29,19H30V20H29zM30,19H31V20H30zM31,19H32V20H31zM32,19H33V20H32zM5,20H6V21H5zM7,20H8V21H7zM8,20H9V21H8zM9,20H10V21H9zM10,20H11V21H10zM11,20H12V21H11zM12,20H13V21H12zM14,20H15V21H14zM15,20H16V21H15zM18,20H19V21H18zM19,20H20V21H19zM21,20H22V21H21zM23,20H24V21H23zM24,20H25V21H24zM25,20H26V21H25zM26,20H27V21H26zM28,20H29V21H28zM30,20H31V21H30zM32,20H33V21H32zM34,20H35V21H34zM35,20H36V21H35zM5,21H6V22H5zM6,21H7V22H6zM8,21H9V22H8zM9,21H10V22H9zM11,21H12V22H11zM12,21H13V22H12zM14,21H15V22H14zM16,21H17V22H16zM17,21H18V22H17zM19,21H20V22H19zM20,21H21V22H20zM21,21H22V22H21zM22,21H23V22H22zM24,21H25V22H24zM27,21H28V22H27zM28,21H29V22H28zM29,21H30V22H29zM33,21H34V22H33zM34,21H35V22H34zM35,21H36V22H35zM5,22H6V23H5zM8,22H9V23H8zM10,22H11V23H10zM11,22H12V23H11zM14,22H15V23H14zM17,22H18V23H17zM19,22H20V23H19zM20,22H21V23H20zM22,22H23V23H22zM24,22H25V23H24zM26,22H27V23H26zM27,22H28V23H27zM29,22H30V23H29zM30,22H31V23H30zM31,22H32V23H31zM33,22H34V23H33zM35,22H36V23H35zM8,23H9V24H8zM9,23H10V24H9zM12,23H13V24H12zM13,23H14V24H13zM14,23H15V24H14zM16,23H17V24H16zM18,23H19V24H18zM19,23H20V24H19zM20,23H21V24H20zM24,23H25V24H24zM25,23H26V24H25zM26,23H27V24H26zM27,23H28V24H27zM29,23H30V24H29zM30,23H31V24H30zM31,23H32V24H31zM35,23H36V24H35zM36,23H37V24H36zM7,24H8V25H7zM10,24H11V25H10zM11,24H12V25H11zM14,24H15V25H14zM15,24H16V25H15zM16,24H17V25H16zM18,24H19V25H18zM19,24H20V25H19zM20,24H21V25H20zM23,24H24V25H23zM24,24H25V25H24zM25,24H26V25H25zM29,24H30V25H29zM30,24H31V25H30zM31,24H32V25H31zM32,24H33V25H32zM33,24H34V25H33zM36,24H37V25H36zM4,25H5V26H4zM8,25H9V26H8zM9,25H10V26H9zM11,25H12V26H11zM12,25H13V26H12zM22,25H23V26H22zM26,25H27V26H26zM27,25H28V26H27zM28,25H29V26H28zM35,25H36V26H35zM6,26H7V27H6zM9,26H10V27H9zM10,26H11V27H10zM13,26H14V27H13zM14,26H15V27H14zM15,26H16V27H15zM16,26H17V27H16zM19,26H20V27H19zM21,26H22V27H21zM22,26H23V27H22zM25,26H26V27H25zM27,26H28V27H27zM29,26H30V27H29zM30,26H31V27H30zM31,26H32V27H31zM32,26H33V27H32zM34,26H35V27H34zM35,26H36V27H35zM11,27H12V28H11zM14,27H15V28H14zM15,27H16V28H15zM19,27H20V28H19zM20,27H21V28H20zM21,27H22V28H21zM22,27H23V28H22zM24,27H25V28H24zM25,27H26V28H25zM29,27H30V28H29zM32,27H33V28H32zM4,28H5V29H4zM5,28H6V29H5zM8,28H9V29H8zM9,28H10V29H9zM10,28H11V29H10zM12,28H13V29H12zM16,28H17V29H16zM18,28H19V29H18zM21,28H22V29H21zM22,28H23V29H22zM23,28H24V29H23zM24,28H25V29H24zM25,28H26V29H25zM26,28H27V29H26zM27,28H28V29H27zM28,28H29V29H28zM29,28H30V29H29zM30,28H31V29H30zM31,28H32V29H31zM32,28H33V29H32zM33,28H34V29H33zM36,28H37V29H36zM12,29H13V30H12zM15,29H16V30H15zM16,29H17V30H16zM17,29H18V30H17zM19,29H20V30H19zM20,29H21V30H20zM22,29H23V30H22zM27,29H28V30H27zM28,29H29V30H28zM32,29H33V30H32zM34,29H35V30H34zM35,29H36V30H35zM4,30H5V31H4zM5,30H6V31H5zM6,30H7V31H6zM7,30H8V31H7zM8,30H9V31H8zM9,30H10V31H9zM10,30H11V31H10zM12,30H13V31H12zM13,30H14V31H13zM14,30H15V31H14zM15,30H16V31H15zM17,30H18V31H17zM18,30H19V31H18zM19,30H20V31H19zM21,30H22V31H21zM28,30H29V31H28zM30,30H31V31H30zM32,30H33V31H32zM33,30H34V31H33zM35,30H36V31H35zM4,31H5V32H4zM10,31H11V32H10zM14,31H15V32H14zM20,31H21V32H20zM21,31H22V32H21zM22,31H23V32H22zM23,31H24V32H23zM24,31H25V32H24zM25,31H26V32H25zM26,31H27V32H26zM28,31H29V32H28zM32,31H33V32H32zM35,31H36V32H35zM36,31H37V32H36zM4,32H5V33H4zM6,32H7V33H6zM7,32H8V33H7zM8,32H9V33H8zM10,32H11V33H10zM12,32H13V33H12zM13,32H14V33H13zM15,32H16V33H15zM16,32H17V33H16zM17,32H18V33H17zM22,32H23V33H22zM25,32H26V33H25zM28,32H29V33H28zM29,32H30V33H29zM30,32H31V33H30zM31,32H32V33H31zM32,32H33V33H32zM33,32H34V33H33zM4,33H5V34H4zM6,33H7V34H6zM7,33H8V34H7zM8,33H9V34H8zM10,33H11V34H10zM13,33H14V34H13zM14,33H15V34H14zM17,33H18V34H17zM20,33H21V34H20zM21,33H22V34H21zM24,33H25V34H24zM25,33H26V34H25zM26,33H27V34H26zM27,33H28V34H27zM30,33H31V34H30zM31,33H32V34H31zM32,33H33V34H32zM34,33H35V34H34zM4,34H5V35H4zM6,34H7V35H6zM7,34H8V35H7zM8,34H9V35H8zM10,34H11V35H10zM13,34H14V35H13zM15,34H16V35H15zM16,34H17V35H16zM17,34H18V35H17zM18,34H19V35H18zM20,34H21V35H20zM22,34H23V35H22zM27,34H28V35H27zM30,34H31V35H30zM31,34H32V35H31zM32,34H33V35H32zM33,34H34V35H33zM34,34H35V35H34zM4,35H5V36H4zM10,35H11V36H10zM13,35H14V36H13zM16,35H17V36H16zM17,35H18V36H17zM18,35H19V36H18zM21,35H22V36H21zM22,35H23V36H22zM23,35H24V36H23zM24,35H25V36H24zM25,35H26V36H25zM27,35H28V36H27zM30,35H31V36H30zM4,36H5V37H4zM5,36H6V37H5zM6,36H7V37H6zM7,36H8V37H7zM8,36H9V37H8zM9,36H10V37H9zM10,36H11V37H10zM12,36H13V37H12zM13,36H14V37H13zM15,36H16V37H15zM16,36H17V37H16zM18,36H19V37H18zM19,36H20V37H19zM20,36H21V37H20zM21,36H22V37H21zM23,36H24V37H23zM24,36H25V37H24zM25,36H26V37H25zM26,36H27V37H26zM27,36H28V37H27zM28,36H29V37H28zM30,36H31V37H30zM34,36H35V37H34zM36,36H37V37H36z" id="qr-path" fill="#000000" fill-opacity="1" fill-rule="nonzero" stroke="none" /></svg>